<svg width="24" height="23" viewBox="0 0 24 23" fill="none" xmlns="http://www.w3.org/2000/svg">
<path d="M20.5498 7.47019L18.0947 0.649414C17.9135 0.145875 17.3807 -0.12163 16.9079 0.0538823L0.590486 6.06125C0.117692 6.23555 -0.121105 6.78387 0.0612926 7.28741L2.64846 14.4786V10.6258C2.64846 8.88518 4.02604 7.47019 5.72042 7.47019H10.032L15.1739 3.82921L18.1487 7.47019H20.5498ZM23.0854 9.68527H5.72042C5.59877 9.68508 5.4783 9.70942 5.3661 9.75684C5.25389 9.80427 5.15222 9.87383 5.06704 9.96144C4.98186 10.0491 4.91489 10.153 4.87007 10.267C4.82525 10.3811 4.80348 10.5031 4.80603 10.6258V22.028C4.80723 22.5655 5.21763 23 5.72042 23H23.0854C23.5894 23 23.9998 22.5655 23.9998 22.028V10.6258C24.0024 10.5031 23.9806 10.3811 23.9358 10.267C23.8909 10.153 23.824 10.0491 23.7388 9.96144C23.6536 9.87383 23.5519 9.80427 23.4397 9.75684C23.3275 9.70942 23.2071 9.68508 23.0854 9.68527ZM21.5998 20.5791H7.20001V18.1583L9.58078 13.2948L12.9023 17.4538L16.0199 14.2316L20.0254 12.7731L21.5998 16.9479V20.5791Z" fill="#CCCCCC"/>
</svg>
