<svg width="25" height="20" viewBox="0 0 25 20" fill="none" xmlns="http://www.w3.org/2000/svg">
<path d="M20.8467 2.71921H3.6262C3.50555 2.71902 3.38609 2.74386 3.27482 2.79229C3.16355 2.84072 3.06272 2.91175 2.97825 3.00122C2.89377 3.09068 2.82736 3.19678 2.78292 3.31327C2.73847 3.42976 2.71688 3.55431 2.71942 3.67959V15.3228C2.72061 15.8715 3.12759 16.3153 3.6262 16.3153H20.8467C21.3465 16.3153 21.7535 15.8715 21.7535 15.3228V3.67959C21.756 3.55431 21.7344 3.42976 21.69 3.31327C21.6455 3.19678 21.5791 3.09068 21.4947 3.00122C21.4102 2.91175 21.3094 2.84072 21.1981 2.79229C21.0868 2.74386 20.9674 2.71902 20.8467 2.71921ZM19.3735 13.8433H5.09347V11.3712L7.45443 6.40498L10.7484 10.6519L13.84 7.36164L17.8122 5.87226L19.3735 10.1352V13.8433Z" fill="#CCCCCC"/>
<path d="M1.35961 12.9162H0V17.6749C0 18.4226 0.611823 19.0345 1.35961 19.0345H7.47783V17.6749H1.35961V12.9162Z" fill="#CCCCCC"/>
<path d="M23.1133 6.11823H24.4729V1.3596C24.4729 0.61182 23.8611 -2.38419e-06 23.1133 -2.38419e-06L16.9951 -2.38419e-06V1.3596L23.1133 1.3596V6.11823Z" fill="#CCCCCC"/>
</svg>
