<svg width="18" height="17" viewBox="0 0 18 17" fill="none" xmlns="http://www.w3.org/2000/svg">
<path d="M11.0022 1.58655C8.08739 1.58655 5.71378 3.96016 5.71378 6.87501C5.71378 8.14135 6.15793 9.30233 6.90368 10.2134L2.68944 14.4276L3.44965 15.1878L7.6639 10.9736C8.57492 11.7193 9.7359 12.1635 11.0022 12.1635C13.9171 12.1635 16.2907 9.78986 16.2907 6.87501C16.2907 3.96016 13.9171 1.58655 11.0022 1.58655ZM11.0022 2.64424C13.3449 2.64424 15.233 4.53239 15.233 6.87501C15.233 9.21763 13.3449 11.1058 11.0022 11.1058C8.65962 11.1058 6.77147 9.21763 6.77147 6.87501C6.77147 4.53239 8.65962 2.64424 11.0022 2.64424Z" fill="#242B32"/>
</svg>
