<svg width="20" height="21" viewBox="0 0 20 21" fill="none" xmlns="http://www.w3.org/2000/svg">
<path d="M11.6507 15.4914C11.6019 15.3837 11.4949 15.3151 11.3769 15.3151H10.1736V11.4043C10.1736 11.2382 10.0388 11.1035 9.87276 11.1035H8.66943C8.50337 11.1035 8.3686 11.2382 8.3686 11.4043V15.3151H7.16527C7.04735 15.3151 6.94025 15.3843 6.89151 15.4914C6.84218 15.5991 6.86143 15.7248 6.93905 15.8139L9.04487 18.2205C9.10203 18.2861 9.18446 18.3234 9.2711 18.3234C9.35774 18.3234 9.44017 18.2855 9.49733 18.2205L11.6032 15.8139C11.6814 15.7254 11.6994 15.5991 11.6507 15.4914Z" fill="#CCCCCC"/>
<path d="M12.5803 17.7218V19.5268H5.96195V17.7218H4.75862V20.1284C4.75862 20.4612 5.02817 20.7301 5.36029 20.7301H13.1819C13.5147 20.7301 13.7836 20.4612 13.7836 20.1284V17.7218H12.5803Z" fill="#CCCCCC"/>
<path d="M18.1275 1.1084e-06H0.906982C0.786339 -0.000191255 0.666874 0.0246568 0.555605 0.0730847C0.444335 0.121513 0.343503 0.192544 0.259031 0.282009C0.174559 0.371474 0.108149 0.477569 0.0637009 0.594062C0.019253 0.710555 -0.00233645 0.835098 0.000200217 0.960378V12.6035C0.00139022 13.1523 0.408371 13.5961 0.906982 13.5961H18.1275C18.6273 13.5961 19.0343 13.1523 19.0343 12.6035V0.960378C19.0368 0.835098 19.0152 0.710555 18.9708 0.594062C18.9263 0.477569 18.8599 0.371474 18.7755 0.282009C18.691 0.192544 18.5901 0.121513 18.4789 0.0730847C18.3676 0.0246568 18.2481 -0.000191255 18.1275 1.1084e-06ZM16.6543 11.124H2.37425V8.65204L4.73522 3.68577L8.02915 7.93268L11.1208 4.64244L15.093 3.15305L16.6543 7.41603V11.124Z" fill="#CCCCCC"/>
</svg>
